<svg xmlns="http://www.w3.org/2000/svg" xmlns:xlink="http://www.w3.org/1999/xlink" width="212.598" height="464.952">
    <defs>
        <pattern xlink:href="#a" id="c" patternTransform="matrix(5.11446 .10636 -.09166 4.40769 848.017 -415.69)"/>
        <pattern patternUnits="userSpaceOnUse" width="135.438" height="264.808" patternTransform="translate(263.565 278.947)" id="b">
            <path style="fill:none;stroke:#000;stroke-width:1px;stroke-linecap:butt;stroke-linejoin:miter;stroke-opacity:1" d="m502.497 353.327 67.375 67.375M502.497 349.014l67.375 67.375M502.497 344.7l67.375 67.376M502.497 340.387l67.375 67.375M502.497 336.074l67.375 67.375M502.497 331.76l67.375 67.376M502.497 327.447l67.375 67.375M502.497 323.134l67.375 67.375M502.497 314.507l67.375 67.375M502.497 310.194l67.375 67.375M502.497 318.82l67.375 67.376M502.497 305.88l67.375 67.376M502.497 301.567l67.375 67.375M502.497 297.254l67.375 67.375M502.497 292.94l67.375 67.375M502.497 288.627l67.375 67.375M502.497 418.028l67.375 67.375M502.497 413.714l67.375 67.375M502.497 409.4l67.375 67.376M502.497 405.088l67.375 67.375M502.497 400.774l67.375 67.375M502.497 396.46l67.375 67.376M502.497 392.147l67.375 67.375M502.497 383.52l67.375 67.376M502.497 379.207l67.375 67.375M502.497 387.834l67.375 67.375M502.497 374.894l67.375 67.375M502.497 370.58l67.375 67.376M502.497 366.267l67.375 67.375M502.497 361.954l67.375 67.375M502.497 357.64l67.375 67.376" transform="translate(-502.156 -288.281)"/>
            <path d="m502.497 353.327 67.375 67.375M502.497 349.014l67.375 67.375M502.497 344.7l67.375 67.376M502.497 340.387l67.375 67.375M502.497 336.074l67.375 67.375M502.497 331.76l67.375 67.376M502.497 327.447l67.375 67.375M502.497 323.134l67.375 67.375M502.497 314.507l67.375 67.375M502.497 310.194l67.375 67.375M502.497 318.82l67.375 67.376M502.497 305.88l67.375 67.376M502.497 301.567l67.375 67.375M502.497 297.254l67.375 67.375M502.497 292.94l67.375 67.375M502.497 288.627l67.375 67.375M502.497 418.028l67.375 67.375M502.497 413.714l67.375 67.375M502.497 409.4l67.375 67.376M502.497 405.088l67.375 67.375M502.497 400.774l67.375 67.375M502.497 396.46l67.375 67.376M502.497 392.147l67.375 67.375M502.497 383.52l67.375 67.376M502.497 379.207l67.375 67.375M502.497 387.834l67.375 67.375M502.497 374.894l67.375 67.375M502.497 370.58l67.375 67.376M502.497 366.267l67.375 67.375M502.497 361.954l67.375 67.375M502.497 357.64l67.375 67.376" style="fill:none;stroke:#000;stroke-width:1px;stroke-linecap:butt;stroke-linejoin:miter;stroke-opacity:1" transform="translate(-434.781 -220.942)"/>
        </pattern>
        <pattern patternUnits="userSpaceOnUse" width="64.531" height="64.5" patternTransform="translate(318.614 541.096)" id="a">
            <g style="stroke:#fff">
                <path transform="translate(236.969 -124.906)" d="m-236.625 187.469 1.594 1.594M-236.625 183.156l5.906 5.906M-236.625 178.844l10.219 10.219M-236.625 174.531l14.531 14.531M-236.625 170.219l18.844 18.844M-236.625 165.906l23.156 23.156M-236.625 161.594l27.469 27.469M-236.625 157.281l31.781 31.781M-236.625 152.969l36.094 36.094M-236.625 148.656l40.406 40.406M-236.625 144.344l44.719 44.719M-236.625 140.031l49.031 49.031M-236.625 135.719l53.344 53.344M-236.625 131.406l57.656 57.656M-236.625 127.094l61.969 61.969M-234.156 125.25l61.375 61.375M-229.844 125.25l57.063 57.063M-225.531 125.25l52.75 52.75M-221.219 125.25l48.438 48.438M-216.906 125.25l44.125 44.125M-212.594 125.25l39.813 39.813M-208.281 125.25l35.5 35.5M-203.938 125.25l31.157 31.156M-199.625 125.25l26.844 26.844M-195.313 125.25l22.532 22.531M-191 125.25l18.219 18.219M-186.688 125.25l13.907 13.906M-182.375 125.25l9.594 9.594M-178.063 125.25l5.282 5.281M-173.75 125.25l.969.969" style="fill:none;stroke:#fff;stroke-width:1px;stroke-linecap:butt;stroke-linejoin:miter;stroke-opacity:1"/>
            </g>
        </pattern>
    </defs>
    <g transform="translate(-623.486 537.819)">
        <rect style="fill:#000" width="212.598" height="318.898" x="623.486" y="-391.765" ry="76.675"/>
        <path style="fill:url(#c);fill-opacity:1" d="M709.352-374.135c-37.758 0-68.153 30.395-68.153 68.153v65.385h79.725v-23.363c-13.031-1.71-23.032-12.786-23.032-26.298v-57.302c0-14.705 11.814-26.575 26.52-26.575h-15.06z"/>
        <path style="fill:#fff" d="M641.2-222.88v64.056c0 37.758 30.394 68.154 68.152 68.154h40.86c37.757 0 68.152-30.396 68.152-68.154v-64.056H641.2zM818.364-240.597v-65.385c0-37.758-30.395-68.153-68.153-68.153h-15.059c14.705 0 26.52 11.87 26.52 26.575v57.302c0 13.512-10.001 24.587-23.032 26.298v23.363h79.724z"/>
        <rect style="fill:#fff" width="35.433" height="83.739" x="712.068" y="-360.791" ry="20.134"/>
        <path d="M655.017-537.8c39.648-.678 62.707 17.625 73.358 39.03 10.651 21.406 10.448 44.985 10.242 57.358-.167 10.088 0 52.596 0 52.596l-17.716.055s-.184-41.915 0-52.983c.198-11.901-.19-32.633-8.416-49.164-8.225-16.53-22.667-29.766-57.19-29.176h-31.81l.062-17.717z" style="font-size:medium;font-style:normal;font-variant:normal;font-weight:400;font-stretch:normal;text-indent:0;text-align:start;text-decoration:none;line-height:normal;letter-spacing:normal;word-spacing:normal;text-transform:none;direction:ltr;block-progression:tb;writing-mode:lr-tb;text-anchor:start;color:#000;fill:#2b1100;fill-opacity:1;stroke:none;stroke-width:10;marker:none;visibility:visible;display:inline;overflow:visible;enable-background:accumulate;font-family:Bitstream Vera Sans;-inkscape-font-specification:Bitstream Vera Sans"/>
    </g>
</svg>
