<?xml version="1.0" encoding="UTF-8"?><svg id="uuid-32d5b077-12fe-4fe4-88ce-ed6bb99dfcda" xmlns="http://www.w3.org/2000/svg" xmlns:xlink="http://www.w3.org/1999/xlink" viewBox="0 0 82.12 71.48"><defs><linearGradient id="uuid-eb6af409-e0bd-4b79-b5af-0c02f12a907e" x1="21.13" y1="45.49" x2="40.14" y2="34.52" gradientUnits="userSpaceOnUse"><stop offset=".05" stop-color="#ffcc4e"/><stop offset=".2" stop-color="#fac84c"/><stop offset=".35" stop-color="#eebe47"/><stop offset=".5" stop-color="#d9ae3f"/><stop offset=".66" stop-color="#bc9634"/><stop offset=".82" stop-color="#977825"/><stop offset=".97" stop-color="#695414"/><stop offset="1" stop-color="#624e11"/></linearGradient><linearGradient id="uuid-d75d5463-312e-44c6-a8b3-faa73d46f2dc" x1="14.09" y1="13.8" x2="14.09" y2="35.74" gradientUnits="userSpaceOnUse"><stop offset=".05" stop-color="#00a759"/><stop offset=".24" stop-color="#00a256"/><stop offset=".43" stop-color="#00964e"/><stop offset=".62" stop-color="#008141"/><stop offset=".82" stop-color="#00642f"/><stop offset="1" stop-color="#00431a"/></linearGradient><linearGradient id="uuid-9291a367-fbc3-4f54-806a-8e2a0901ed08" x1="54.22" y1="58.91" x2="73.23" y2="47.94" gradientUnits="userSpaceOnUse"><stop offset="0" stop-color="#5e0000"/><stop offset=".16" stop-color="#890e0a"/><stop offset=".32" stop-color="#ad1b13"/><stop offset=".47" stop-color="#c9241a"/><stop offset=".63" stop-color="#dd2b1f"/><stop offset=".79" stop-color="#e92f22"/><stop offset=".95" stop-color="#ee3124"/></linearGradient></defs><path d="M61.27.37c.41.24.76.58,1.01,1.01l19.84,34.36-7.97,13.8L54.31,15.18c-.25-.43-.6-.77-1.01-1.01L61.27.37Z" fill="#0061af"/><path d="M61.27.37C60.86.13,60.38,0,59.89,0H20.21l-7.96,13.8h39.68c.49,0,.97.13,1.38.37L61.27.37Z" fill="#0061af"/><path d="M58.22,21.95h-23.74c-.49,0-.97.13-1.38.37l7.97,13.8c.41-.24.89-.37,1.38-.37h23.74l-7.97-13.8Z" fill="#624e11"/><path d="M28.18,57.69h0l11.87-20.56c.25-.43.6-.77,1.01-1.01l-7.97-13.8c-.41.24-.76.58-1.01,1.01l-11.87,20.57,7.96,13.8Z" fill="url(#uuid-eb6af409-e0bd-4b79-b5af-0c02f12a907e)"/><path d="M12.24,13.8L.37,34.36c-.25.43-.37.9-.37,1.38h15.93c0-.48.12-.95.37-1.38l11.87-20.56h-15.93Z" fill="url(#uuid-d75d5463-312e-44c6-a8b3-faa73d46f2dc)"/><path d="M28.18,57.69l-11.87-20.56c-.25-.43-.37-.9-.37-1.38H0c0,.48.12.95.37,1.38l11.88,20.56h15.93Z" fill="#00431a"/><path d="M74.15,49.54l-7.97-13.8-11.87,20.56c-.25.43-.6.77-1.01,1.01l7.97,13.8c.41-.24.76-.58,1.01-1.01l11.87-20.57Z" fill="url(#uuid-9291a367-fbc3-4f54-806a-8e2a0901ed08)"/><path d="M61.27,71.12c-.41.24-.89.37-1.38.37H20.21s-7.96-13.8-7.96-13.8h39.68c.49,0,.97-.13,1.38-.37l7.97,13.8Z" fill="#5e0000"/></svg>