<?xml version="1.0" encoding="UTF-8"?><svg id="uuid-bfacd0e0-a5ba-4016-b94c-cf2ebed77175" xmlns="http://www.w3.org/2000/svg" viewBox="0 0 83.62 72.98"><path d="M83.52,36.12L63.68,1.75c-.31-.53-.75-.97-1.28-1.28,0,0,0,0,0,0-.53-.31-1.14-.47-1.75-.47H20.96c-.27,0-.52.14-.65.38l-7.96,13.8L.47,34.74C.16,35.27,0,35.88,0,36.49c0,0,0,0,0,0h0s0,0,0,0c0,.61.16,1.22.47,1.75l11.88,20.56,7.96,13.8c.13.23.38.38.65.38h39.68c.61,0,1.22-.16,1.75-.47,0,0,0,0,0,0,.53-.31.98-.75,1.28-1.28l11.87-20.57,7.97-13.8c.13-.23.13-.52,0-.75ZM54.41,56.68c-.18.3-.43.56-.73.74,0,0,0,0,0,0-.3.18-.65.27-1,.27h-22.44l11.22-19.44c.18-.3.43-.56.73-.74.3-.18.65-.27,1-.27h22.44l-11.22,19.44ZM33.48,24.45c.05-.08.1-.16.16-.23l2.57,4.45,4.62,7.99c-.27.24-.49.53-.68.84l-11.22,19.44-7.1-12.3,11.66-20.19ZM59.91,25.83l5.73,9.92h-22.45c-.36,0-.72.06-1.06.17l-7.19-12.44c.09-.01.19-.02.28-.02h23.31l1.38,2.38ZM35.22,21.95c-.62,0-1.22.16-1.75.47-.53.31-.98.75-1.28,1.28l-11.22,19.44-3.26-5.64c-.18-.31-.27-.65-.27-1s.09-.7.27-1l11.66-20.19h23.31c.35,0,.7.09,1,.27.31.18.56.43.74.74l3.26,5.64h-22.45ZM21.39,1.5h39.25c.09,0,.19,0,.28.02l-7.18,12.44c-.34-.11-.7-.17-1.06-.17H14.29L21.39,1.5ZM13.43,15.3h14.2l-11.22,19.44c-.18.31-.31.65-.39,1H1.65c.04-.09.08-.17.12-.25L13.43,15.3ZM1.65,37.24h14.37c.08.35.21.69.39,1l3.91,6.77s0,0,0,0l7.32,12.67h-14.2L1.77,37.5c-.05-.08-.09-.17-.12-.25ZM21.39,71.48l-7.1-12.3h38.38c.36,0,.72-.06,1.06-.17l1.91,3.3,5.28,9.14c-.09.01-.19.02-.28.02H21.39ZM62.38,70.48c-.05.08-.1.16-.16.23l-6.02-10.43-1.16-2.01c.27-.24.49-.53.67-.84l11.22-19.44,7.1,12.3-11.65,20.19ZM74.9,48.79L55.71,15.55c-.18-.31-.41-.6-.68-.84l4.29-7.43,2.9-5.02c.06.07.11.15.16.23l19.62,33.99-7.1,12.3Z" fill="#fff"/></svg>