<?xml version="1.0" encoding="UTF-8"?><svg id="uuid-c9c0505f-ffe2-488f-bc60-0bf83c01bd53" xmlns="http://www.w3.org/2000/svg" xmlns:xlink="http://www.w3.org/1999/xlink" viewBox="0 0 277.2 100.45"><defs><linearGradient id="uuid-5e492125-22e3-45af-9df5-069cbb305719" x1="21.15" y1="46.9" x2="40.16" y2="35.93" gradientUnits="userSpaceOnUse"><stop offset=".05" stop-color="#ffcc4e"/><stop offset=".2" stop-color="#fac84c"/><stop offset=".35" stop-color="#eebe47"/><stop offset=".5" stop-color="#d9ae3f"/><stop offset=".66" stop-color="#bc9634"/><stop offset=".82" stop-color="#977825"/><stop offset=".97" stop-color="#695414"/><stop offset="1" stop-color="#624e11"/></linearGradient><linearGradient id="uuid-313850db-39f1-4e30-84e2-8c2a87b87c8d" x1="14.11" y1="15.21" x2="14.11" y2="37.15" gradientUnits="userSpaceOnUse"><stop offset=".05" stop-color="#00a759"/><stop offset=".24" stop-color="#00a256"/><stop offset=".43" stop-color="#00964e"/><stop offset=".62" stop-color="#008141"/><stop offset=".82" stop-color="#00642f"/><stop offset="1" stop-color="#00431a"/></linearGradient><linearGradient id="uuid-c13436b2-3594-407d-9202-5abe1e69c8f5" x1="54.24" y1="60.33" x2="73.25" y2="49.35" gradientUnits="userSpaceOnUse"><stop offset="0" stop-color="#5e0000"/><stop offset=".16" stop-color="#890e0a"/><stop offset=".32" stop-color="#ad1b13"/><stop offset=".47" stop-color="#c9241a"/><stop offset=".63" stop-color="#dd2b1f"/><stop offset=".79" stop-color="#e92f22"/><stop offset=".95" stop-color="#ee3124"/></linearGradient></defs><path d="M0,100.25v-10.5h3.48c2.88,0,5.19,2.34,5.19,5.25s-2.37,5.25-5.19,5.25H0ZM2.15,98.18h1.34c1.62,0,3.04-1.37,3.04-3.18s-1.43-3.18-3.04-3.18h-1.34v6.36Z" fill="#003469"/><path d="M14.37,100.25v-10.5h2.15v10.5h-2.15Z" fill="#003469"/><path d="M27.45,94.72h4.8v5.53h-1.26l-.38-1.38c-.57.77-1.75,1.57-3.27,1.57-2.81,0-5.16-2.41-5.16-5.44s2.36-5.44,5.16-5.44c2.64,0,4.38,1.89,4.75,3.63h-2.23c-.25-.67-1.09-1.56-2.52-1.56-1.62,0-3.02,1.43-3.02,3.37s1.4,3.38,3.02,3.38,2.41-1.11,2.62-1.83h-2.52v-1.83Z" fill="#003469"/><path d="M38.42,100.25v-10.5h2.15v10.5h-2.15Z" fill="#003469"/><path d="M48.82,100.25v-8.43h-3.04v-2.07h8.24v2.07h-3.05v8.43h-2.15Z" fill="#003469"/><path d="M64.85,100.25l-.77-2.16h-3.96l-.77,2.16h-2.17l3.91-10.5h2.1l3.9,10.5h-2.25ZM62.11,92.42l-1.27,3.69h2.55l-1.27-3.69Z" fill="#003469"/><path d="M72.19,100.25v-10.5h2.15v8.43h4.87v2.07h-7.02Z" fill="#003469"/><path d="M98.87,89.75h2.15v10.5h-2.15v-4.33h-4.29v4.33h-2.15v-10.5h2.15v4.09h4.29v-4.09Z" fill="#003469"/><path d="M109.45,98.21h5.19v2.04h-7.33v-10.5h7.19v2.04h-5.04v2.11h4.47v1.98h-4.47v2.32Z" fill="#003469"/><path d="M127.13,100.25l-.77-2.16h-3.96l-.77,2.16h-2.17l3.91-10.5h2.1l3.9,10.5h-2.25ZM124.39,92.42l-1.27,3.69h2.55l-1.27-3.69Z" fill="#003469"/><path d="M134.47,100.25v-10.5h2.15v8.43h4.87v2.07h-7.02Z" fill="#003469"/><path d="M147.77,100.25v-8.43h-3.04v-2.07h8.24v2.07h-3.05v8.43h-2.15Z" fill="#003469"/><path d="M164.62,89.75h2.15v10.5h-2.15v-4.33h-4.29v4.33h-2.15v-10.5h2.15v4.09h4.29v-4.09Z" fill="#003469"/><path d="M187.53,89.75h2.07v10.5h-1.97l-4.66-6.87v6.87h-2.07v-10.5h1.97l4.66,6.87v-6.87Z" fill="#003469"/><path d="M198.02,98.21h5.19v2.04h-7.33v-10.5h7.19v2.04h-5.04v2.11h4.47v1.98h-4.47v2.32Z" fill="#003469"/><path d="M211.16,100.25v-8.43h-3.04v-2.07h8.24v2.07h-3.05v8.43h-2.15Z" fill="#003469"/><path d="M232.76,89.75h2.15l-3.3,10.5h-1.74l-1.86-6.42-1.86,6.42h-1.77l-3.29-10.5h2.21l1.99,6.76,1.94-6.76h1.61l1.94,6.76,1.99-6.76Z" fill="#003469"/><path d="M239.23,95c0-3.03,2.36-5.44,5.16-5.44s5.16,2.41,5.16,5.44-2.36,5.44-5.16,5.44-5.16-2.41-5.16-5.44ZM247.41,95c0-1.95-1.4-3.37-3.02-3.37s-3.02,1.43-3.02,3.37,1.4,3.38,3.02,3.38,3.02-1.43,3.02-3.38Z" fill="#003469"/><path d="M260.9,100.25l-2.1-3.78h-1.4v3.78h-2.15v-10.5h4.26c2.04,0,3.56,1.41,3.56,3.39,0,1.33-.84,2.48-2.18,3l2.48,4.11h-2.48ZM257.41,91.79v2.73h2.06c.84,0,1.47-.57,1.47-1.36s-.63-1.36-1.47-1.36h-2.06Z" fill="#003469"/><path d="M277.2,100.25h-2.67l-3.45-4.71v4.71h-2.15v-10.5h2.15v4.54l3.28-4.54h2.53l-3.76,5.1,4.07,5.4Z" fill="#003469"/><path d="M137.79,72.91l-13.68-24.3h-7.76v24.3h-17.36V1.43h30.84c14.81,0,25.22,10.01,25.22,23.69,0,8.99-5.31,16.44-13.99,20.42l16.34,27.37h-19.61ZM116.04,16.65v17.36h12.25c5.31,0,9.19-3.68,9.19-8.68s-3.88-8.68-9.19-8.68h-12.25Z" fill="#003469"/><path d="M155.98,50.24l17.36-.82c.82,5.62,4.49,9.8,11.23,9.8,6.23,0,9.09-2.86,9.09-6.03,0-12.15-36.15-7.15-36.15-32.27,0-11.74,9.39-20.94,26.35-20.94,15.42,0,25.94,10.72,26.65,23.28l-17.26.82c-.61-5.41-4.19-8.99-9.6-8.99s-8.37,2.86-8.37,6.33c0,11.95,36.05,6.33,36.05,31.56,0,11.85-9.5,21.34-26.55,21.34s-27.98-10.93-28.8-24.1Z" fill="#003469"/><path d="M260.35,1.43h16.85v71.48h-16.24l-29-43.5v43.5h-16.85V1.43h16.24l29,43.5V1.43Z" fill="#003469"/><path d="M61.29,1.78c.41.24.76.58,1.01,1.01l19.84,34.36-7.97,13.8-19.84-34.36c-.25-.43-.6-.77-1.01-1.01l7.97-13.8Z" fill="#0061af"/><path d="M61.29,1.78c-.41-.24-.89-.37-1.38-.37H20.23l-7.96,13.8h39.68c.49,0,.97.13,1.38.37l7.97-13.8Z" fill="#0061af"/><path d="M58.24,23.36h-23.74c-.49,0-.97.13-1.38.37l7.97,13.8c.41-.24.89-.37,1.38-.37h23.74l-7.97-13.8Z" fill="#624e11"/><path d="M28.2,59.1h0l11.87-20.56c.25-.43.6-.77,1.01-1.01l-7.97-13.8c-.41.24-.76.58-1.01,1.01l-11.87,20.57,7.96,13.8Z" fill="url(#uuid-5e492125-22e3-45af-9df5-069cbb305719)"/><path d="M12.27,15.21L.39,35.78c-.25.43-.37.9-.37,1.38h15.93c0-.48.12-.95.37-1.38l11.87-20.56h-15.93Z" fill="url(#uuid-313850db-39f1-4e30-84e2-8c2a87b87c8d)"/><path d="M28.2,59.1l-11.87-20.56c-.25-.43-.37-.9-.37-1.38H.02c0,.48.12.95.37,1.38l11.88,20.56h15.93Z" fill="#00431a"/><path d="M74.17,50.95l-7.97-13.8-11.87,20.56c-.25.43-.6.77-1.01,1.01l7.97,13.8c.41-.24.76-.58,1.01-1.01l11.87-20.57Z" fill="url(#uuid-c13436b2-3594-407d-9202-5abe1e69c8f5)"/><path d="M61.29,72.53c-.41.24-.89.37-1.38.37H20.23s-7.96-13.8-7.96-13.8h39.68c.49,0,.97-.13,1.38-.37l7.97,13.8Z" fill="#5e0000"/></svg>