<?xml version="1.0" encoding="UTF-8"?><svg id="uuid-cc7816fb-8550-4da3-9fa1-f6bbe6f69c26" xmlns="http://www.w3.org/2000/svg" viewBox="0 0 277.94 100.62"><path d="M6.41,100.32l-2.11-3.8h-1.4v3.8H.74v-10.56h4.29c2.05,0,3.58,1.42,3.58,3.41,0,1.34-.84,2.49-2.19,3.02l2.49,4.13h-2.49ZM2.9,91.81v2.75h2.07c.84,0,1.48-.57,1.48-1.37s-.63-1.37-1.48-1.37h-2.07Z" fill="#fff"/><path d="M16.27,98.27h5.22v2.05h-7.38v-10.56h7.23v2.05h-5.07v2.13h4.5v1.99h-4.5v2.34ZM20.07,86.54l-1.77,2.38h-1.61l1.24-2.38h2.14Z" fill="#fff"/><path d="M26.33,96.98h2.16c.12.89.72,1.6,1.9,1.6,1.12,0,1.63-.51,1.63-1.1,0-2.01-5.45-1.04-5.45-4.86,0-1.74,1.36-3.06,3.68-3.06s3.7,1.51,3.79,3.44h-2.16c-.06-.86-.65-1.51-1.63-1.51s-1.52.51-1.52,1.16c0,1.99,5.45,1,5.45,4.75,0,1.75-1.36,3.11-3.79,3.11s-3.97-1.52-4.06-3.53Z" fill="#fff"/><path d="M41.8,98.27h5.22v2.05h-7.38v-10.56h7.23v2.05h-5.07v2.13h4.5v1.99h-4.5v2.34Z" fill="#fff"/><path d="M59.22,100.32l-.77-2.17h-3.98l-.77,2.17h-2.19l3.94-10.56h2.11l3.92,10.56h-2.26ZM56.46,92.44l-1.28,3.71h2.57l-1.28-3.71Z" fill="#fff"/><path d="M65.78,96.26v-6.5h2.16v6.5c0,1.24.75,2.17,2.1,2.17s2.1-.94,2.1-2.17v-6.5h2.16v6.5c0,2.4-1.69,4.26-4.26,4.26s-4.26-1.86-4.26-4.26Z" fill="#fff"/><path d="M87.09,96.98h2.16c.12.89.72,1.6,1.9,1.6,1.12,0,1.63-.51,1.63-1.1,0-2.01-5.45-1.04-5.45-4.86,0-1.74,1.36-3.06,3.68-3.06s3.7,1.51,3.79,3.44h-2.16c-.06-.86-.65-1.51-1.63-1.51s-1.52.51-1.52,1.16c0,1.99,5.45,1,5.45,4.75,0,1.75-1.36,3.11-3.79,3.11s-3.97-1.52-4.06-3.53Z" fill="#fff"/><path d="M106.74,100.32l-.77-2.17h-3.98l-.77,2.17h-2.19l3.94-10.56h2.11l3.92,10.56h-2.26ZM103.98,92.44l-1.28,3.71h2.57l-1.28-3.71Z" fill="#fff"/><path d="M120.41,89.75h2.08v10.56h-1.98l-4.69-6.91v6.91h-2.08v-10.56h1.98l4.69,6.91v-6.91Z" fill="#fff"/><path d="M130.44,100.32v-8.48h-3.06v-2.08h8.29v2.08h-3.06v8.48h-2.16Z" fill="#fff"/><path d="M142.7,98.27h5.22v2.05h-7.38v-10.56h7.23v2.05h-5.07v2.13h4.5v1.99h-4.5v2.34ZM146.5,86.54l-1.77,2.38h-1.61l1.24-2.38h2.14Z" fill="#fff"/><path d="M167.56,89.75h2.08v10.56h-1.98l-4.69-6.91v6.91h-2.08v-10.56h1.98l4.69,6.91v-6.91Z" fill="#fff"/><path d="M175.51,96.26v-6.5h2.16v6.5c0,1.24.75,2.17,2.1,2.17s2.1-.94,2.1-2.17v-6.5h2.16v6.5c0,2.4-1.69,4.26-4.26,4.26s-4.26-1.86-4.26-4.26Z" fill="#fff"/><path d="M198.85,89.75h1.92v10.56h-2.08v-6.1l-2.84,6.1h-1.07l-2.81-6.04v6.04h-2.08v-10.56h2.05l3.46,7.45,3.46-7.45Z" fill="#fff"/><path d="M208.88,98.27h5.22v2.05h-7.38v-10.56h7.23v2.05h-5.07v2.13h4.5v1.99h-4.5v2.34ZM212.68,86.54l-1.77,2.38h-1.61l1.24-2.38h2.14Z" fill="#fff"/><path d="M225.29,100.32l-2.11-3.8h-1.4v3.8h-2.16v-10.56h4.29c2.05,0,3.58,1.42,3.58,3.41,0,1.34-.84,2.49-2.19,3.02l2.49,4.13h-2.49ZM221.77,91.81v2.75h2.07c.84,0,1.48-.57,1.48-1.37s-.63-1.37-1.48-1.37h-2.07Z" fill="#fff"/><path d="M232.98,100.32v-10.56h2.16v10.56h-2.16Z" fill="#fff"/><path d="M249.83,98.28l1,.98-1.3,1.36-1.03-1.01c-.83.57-1.81.91-2.85.91-2.82,0-5.19-2.43-5.19-5.48s2.37-5.48,5.19-5.48,5.19,2.43,5.19,5.48c0,1.22-.38,2.34-1.01,3.24ZM247.03,98.16l-1.3-1.27,1.3-1.36,1.31,1.28c.27-.51.42-1.12.42-1.78,0-2.01-1.43-3.47-3.11-3.47s-3.11,1.46-3.11,3.47,1.43,3.47,3.11,3.47c.48,0,.95-.12,1.37-.35Z" fill="#fff"/><path d="M256.18,96.26v-6.5h2.16v6.5c0,1.24.75,2.17,2.1,2.17s2.1-.94,2.1-2.17v-6.5h2.16v6.5c0,2.4-1.69,4.26-4.26,4.26s-4.26-1.86-4.26-4.26Z" fill="#fff"/><path d="M272.71,98.27h5.22v2.05h-7.38v-10.56h7.23v2.05h-5.07v2.13h4.5v1.99h-4.5v2.34Z" fill="#fff"/><path d="M138.52,72.91l-13.68-24.3h-7.76v24.3h-17.36V1.43h30.84c14.81,0,25.22,10.01,25.22,23.69,0,8.99-5.31,16.44-13.99,20.42l16.34,27.37h-19.61ZM116.77,16.65v17.36h12.25c5.31,0,9.19-3.68,9.19-8.68s-3.88-8.68-9.19-8.68h-12.25Z" fill="#fff"/><path d="M156.71,50.24l17.36-.82c.82,5.62,4.49,9.8,11.23,9.8,6.23,0,9.09-2.86,9.09-6.03,0-12.15-36.15-7.15-36.15-32.27,0-11.74,9.39-20.94,26.35-20.94,15.42,0,25.94,10.72,26.65,23.28l-17.26.82c-.61-5.41-4.19-8.99-9.6-8.99s-8.37,2.86-8.37,6.33c0,11.95,36.05,6.33,36.05,31.56,0,11.85-9.5,21.34-26.55,21.34s-27.98-10.93-28.8-24.1Z" fill="#fff"/><path d="M261.08,1.43h16.85v71.48h-16.24l-29-43.5v43.5h-16.85V1.43h16.24l29,43.5V1.43Z" fill="#fff"/><path d="M83.52,36.78L63.68,2.42c-.31-.53-.75-.97-1.28-1.28,0,0,0,0,0,0-.53-.31-1.14-.47-1.75-.47H20.96c-.27,0-.52.14-.65.38l-7.96,13.8L.47,35.4C.16,35.93,0,36.54,0,37.15c0,0,0,0,0,0h0s0,0,0,0c0,.61.16,1.22.47,1.75l11.88,20.56,7.96,13.8c.13.23.38.38.65.38h39.68c.61,0,1.22-.16,1.75-.47,0,0,0,0,0,0,.53-.31.98-.75,1.28-1.28l11.87-20.57,7.97-13.8c.13-.23.13-.52,0-.75ZM54.41,57.34c-.18.3-.43.56-.73.74,0,0,0,0,0,0-.3.18-.65.27-1,.27h-22.44l11.22-19.44c.18-.3.43-.56.73-.74.3-.18.65-.27,1-.27h22.44l-11.22,19.44ZM33.48,25.11c.05-.08.1-.16.16-.23l2.57,4.45,4.62,7.99c-.27.24-.49.53-.68.84l-11.22,19.44-7.1-12.3,11.66-20.19ZM59.91,26.49l5.73,9.92h-22.45c-.36,0-.72.06-1.06.17l-7.19-12.44c.09-.01.19-.02.28-.02h23.31l1.38,2.38ZM35.22,22.61c-.62,0-1.22.16-1.75.47-.53.31-.98.75-1.28,1.28l-11.22,19.44-3.26-5.64c-.18-.31-.27-.65-.27-1s.09-.7.27-1l11.66-20.19h23.31c.35,0,.7.09,1,.27.31.18.56.43.74.74l3.26,5.64h-22.45ZM21.39,2.16h39.25c.09,0,.19,0,.28.02l-7.18,12.44c-.34-.11-.7-.17-1.06-.17H14.29l7.1-12.3ZM13.43,15.96h14.2l-11.22,19.44c-.18.31-.31.65-.39,1H1.65c.04-.09.08-.17.12-.25L13.43,15.96ZM1.65,37.9h14.37c.08.35.21.69.39,1l3.91,6.77s0,0,0,0l7.32,12.67h-14.2L1.77,38.16c-.05-.08-.09-.17-.12-.25ZM21.39,72.15l-7.1-12.3h38.38c.36,0,.72-.06,1.06-.17l1.91,3.3,5.28,9.14c-.09.01-.19.02-.28.02H21.39ZM62.38,71.14c-.05.08-.1.16-.16.23l-6.02-10.43-1.16-2.01c.27-.24.49-.53.67-.84l11.22-19.44,7.1,12.3-11.65,20.19ZM74.9,49.45l-19.19-33.24c-.18-.31-.41-.6-.68-.84l4.29-7.43,2.9-5.02c.06.07.11.15.16.23l19.62,33.99-7.1,12.3Z" fill="#fff"/></svg>