<?xml version="1.0" encoding="UTF-8"?><svg id="uuid-afd23db0-0540-44c8-93a9-1e9a4c12f7fb" xmlns="http://www.w3.org/2000/svg" xmlns:xlink="http://www.w3.org/1999/xlink" viewBox="0 0 277.18 74.34"><defs><linearGradient id="uuid-5d57ca6d-b48e-42be-b2f3-ef99b2459193" x1="21.13" y1="46.9" x2="40.14" y2="35.93" gradientUnits="userSpaceOnUse"><stop offset=".05" stop-color="#ffcc4e"/><stop offset=".2" stop-color="#fac84c"/><stop offset=".35" stop-color="#eebe47"/><stop offset=".5" stop-color="#d9ae3f"/><stop offset=".66" stop-color="#bc9634"/><stop offset=".82" stop-color="#977825"/><stop offset=".97" stop-color="#695414"/><stop offset="1" stop-color="#624e11"/></linearGradient><linearGradient id="uuid-651a69fd-63b4-4902-aadf-88dc7af40642" x1="14.09" y1="15.21" x2="14.09" y2="37.15" gradientUnits="userSpaceOnUse"><stop offset=".05" stop-color="#00a759"/><stop offset=".24" stop-color="#00a256"/><stop offset=".43" stop-color="#00964e"/><stop offset=".62" stop-color="#008141"/><stop offset=".82" stop-color="#00642f"/><stop offset="1" stop-color="#00431a"/></linearGradient><linearGradient id="uuid-8b302330-ae96-4d22-bd90-e123e7fc6ae7" x1="54.22" y1="60.33" x2="73.23" y2="49.35" gradientUnits="userSpaceOnUse"><stop offset="0" stop-color="#5e0000"/><stop offset=".16" stop-color="#890e0a"/><stop offset=".32" stop-color="#ad1b13"/><stop offset=".47" stop-color="#c9241a"/><stop offset=".63" stop-color="#dd2b1f"/><stop offset=".79" stop-color="#e92f22"/><stop offset=".95" stop-color="#ee3124"/></linearGradient></defs><path d="M137.77,72.91l-13.68-24.3h-7.76v24.3h-17.36V1.43h30.84c14.81,0,25.22,10.01,25.22,23.69,0,8.99-5.31,16.44-13.99,20.42l16.34,27.37h-19.61ZM116.02,16.65v17.36h12.25c5.31,0,9.19-3.68,9.19-8.68s-3.88-8.68-9.19-8.68h-12.25Z" fill="#003469"/><path d="M155.96,50.24l17.36-.82c.82,5.62,4.49,9.8,11.23,9.8,6.23,0,9.09-2.86,9.09-6.03,0-12.15-36.15-7.15-36.15-32.27,0-11.74,9.39-20.94,26.35-20.94,15.42,0,25.94,10.72,26.65,23.28l-17.26.82c-.61-5.41-4.19-8.99-9.6-8.99s-8.37,2.86-8.37,6.33c0,11.95,36.05,6.33,36.05,31.56,0,11.85-9.5,21.34-26.55,21.34s-27.98-10.93-28.8-24.1Z" fill="#003469"/><path d="M260.33,1.43h16.85v71.48h-16.24l-29-43.5v43.5h-16.85V1.43h16.24l29,43.5V1.43Z" fill="#003469"/><path d="M61.27,1.78c.41.24.76.58,1.01,1.01l19.84,34.36-7.97,13.8-19.84-34.36c-.25-.43-.6-.77-1.01-1.01l7.97-13.8Z" fill="#0061af"/><path d="M61.27,1.78c-.41-.24-.89-.37-1.38-.37H20.21l-7.96,13.8h39.68c.49,0,.97.13,1.38.37l7.97-13.8Z" fill="#0061af"/><path d="M58.22,23.36h-23.74c-.49,0-.97.13-1.38.37l7.97,13.8c.41-.24.89-.37,1.38-.37h23.74l-7.97-13.8Z" fill="#624e11"/><path d="M28.18,59.1h0l11.87-20.56c.25-.43.6-.77,1.01-1.01l-7.97-13.8c-.41.24-.76.58-1.01,1.01l-11.87,20.57,7.96,13.8Z" fill="url(#uuid-5d57ca6d-b48e-42be-b2f3-ef99b2459193)"/><path d="M12.24,15.21L.37,35.78c-.25.43-.37.9-.37,1.38h15.93c0-.48.12-.95.37-1.38l11.87-20.56h-15.93Z" fill="url(#uuid-651a69fd-63b4-4902-aadf-88dc7af40642)"/><path d="M28.18,59.1l-11.87-20.56c-.25-.43-.37-.9-.37-1.38H0c0,.48.12.95.37,1.38l11.88,20.56h15.93Z" fill="#00431a"/><path d="M74.15,50.95l-7.97-13.8-11.87,20.56c-.25.43-.6.77-1.01,1.01l7.97,13.8c.41-.24.76-.58,1.01-1.01l11.87-20.57Z" fill="url(#uuid-8b302330-ae96-4d22-bd90-e123e7fc6ae7)"/><path d="M61.27,72.53c-.41.24-.89.37-1.38.37H20.21s-7.96-13.8-7.96-13.8h39.68c.49,0,.97-.13,1.38-.37l7.97,13.8Z" fill="#5e0000"/></svg>