<?xml version="1.0" encoding="UTF-8"?><svg id="uuid-3090b17b-f73e-4a9c-aa86-5fb871d6ac7a" xmlns="http://www.w3.org/2000/svg" viewBox="0 0 277.93 100.45"><path d="M.73,100.25v-10.5h3.48c2.88,0,5.19,2.34,5.19,5.25s-2.37,5.25-5.19,5.25H.73ZM2.87,98.18h1.34c1.62,0,3.04-1.37,3.04-3.18s-1.43-3.18-3.04-3.18h-1.34v6.36Z"/><path d="M15.1,100.25v-10.5h2.15v10.5h-2.15Z"/><path d="M28.18,94.72h4.8v5.53h-1.26l-.38-1.38c-.57.77-1.75,1.57-3.27,1.57-2.81,0-5.16-2.41-5.16-5.44s2.36-5.44,5.16-5.44c2.64,0,4.38,1.89,4.75,3.63h-2.23c-.25-.67-1.09-1.56-2.52-1.56-1.62,0-3.02,1.43-3.02,3.37s1.4,3.38,3.02,3.38,2.41-1.11,2.62-1.83h-2.52v-1.83Z"/><path d="M39.15,100.25v-10.5h2.15v10.5h-2.15Z"/><path d="M49.55,100.25v-8.43h-3.04v-2.07h8.24v2.07h-3.05v8.43h-2.15Z"/><path d="M65.58,100.25l-.77-2.16h-3.96l-.77,2.16h-2.17l3.91-10.5h2.1l3.9,10.5h-2.25ZM62.84,92.42l-1.27,3.69h2.55l-1.27-3.69Z"/><path d="M72.92,100.25v-10.5h2.15v8.43h4.87v2.07h-7.02Z"/><path d="M99.6,89.75h2.15v10.5h-2.15v-4.33h-4.29v4.33h-2.15v-10.5h2.15v4.09h4.29v-4.09Z"/><path d="M110.17,98.21h5.19v2.04h-7.33v-10.5h7.19v2.04h-5.04v2.11h4.47v1.98h-4.47v2.32Z"/><path d="M127.86,100.25l-.77-2.16h-3.96l-.77,2.16h-2.17l3.91-10.5h2.1l3.9,10.5h-2.25ZM125.12,92.42l-1.27,3.69h2.55l-1.27-3.69Z"/><path d="M135.2,100.25v-10.5h2.15v8.43h4.87v2.07h-7.02Z"/><path d="M148.5,100.25v-8.43h-3.04v-2.07h8.24v2.07h-3.05v8.43h-2.15Z"/><path d="M165.35,89.75h2.15v10.5h-2.15v-4.33h-4.29v4.33h-2.15v-10.5h2.15v4.09h4.29v-4.09Z"/><path d="M188.26,89.75h2.07v10.5h-1.97l-4.66-6.87v6.87h-2.07v-10.5h1.97l4.66,6.87v-6.87Z"/><path d="M198.75,98.21h5.19v2.04h-7.33v-10.5h7.19v2.04h-5.04v2.11h4.47v1.98h-4.47v2.32Z"/><path d="M211.89,100.25v-8.43h-3.04v-2.07h8.24v2.07h-3.05v8.43h-2.15Z"/><path d="M233.49,89.75h2.15l-3.3,10.5h-1.74l-1.86-6.42-1.86,6.42h-1.77l-3.29-10.5h2.21l1.99,6.76,1.94-6.76h1.61l1.94,6.76,1.99-6.76Z"/><path d="M239.96,95c0-3.03,2.36-5.44,5.16-5.44s5.16,2.41,5.16,5.44-2.36,5.44-5.16,5.44-5.16-2.41-5.16-5.44ZM248.14,95c0-1.95-1.4-3.37-3.02-3.37s-3.02,1.43-3.02,3.37,1.4,3.38,3.02,3.38,3.02-1.43,3.02-3.38Z"/><path d="M261.63,100.25l-2.1-3.78h-1.4v3.78h-2.15v-10.5h4.26c2.04,0,3.56,1.41,3.56,3.39,0,1.33-.84,2.48-2.18,3l2.48,4.11h-2.48ZM258.14,91.79v2.73h2.06c.84,0,1.47-.57,1.47-1.36s-.63-1.36-1.47-1.36h-2.06Z"/><path d="M277.92,100.25h-2.67l-3.45-4.71v4.71h-2.15v-10.5h2.15v4.54l3.28-4.54h2.53l-3.76,5.1,4.07,5.4Z"/><path d="M138.52,72.91l-13.68-24.3h-7.76v24.3h-17.36V1.43h30.84c14.81,0,25.22,10.01,25.22,23.69,0,8.99-5.31,16.44-13.99,20.42l16.34,27.37h-19.61ZM116.77,16.65v17.36h12.25c5.31,0,9.19-3.68,9.19-8.68s-3.88-8.68-9.19-8.68h-12.25Z"/><path d="M156.71,50.24l17.36-.82c.82,5.62,4.49,9.8,11.23,9.8,6.23,0,9.09-2.86,9.09-6.03,0-12.15-36.15-7.15-36.15-32.27,0-11.74,9.39-20.94,26.35-20.94,15.42,0,25.94,10.72,26.65,23.28l-17.26.82c-.61-5.41-4.19-8.99-9.6-8.99s-8.37,2.86-8.37,6.33c0,11.95,36.05,6.33,36.05,31.56,0,11.85-9.5,21.34-26.55,21.34s-27.98-10.93-28.8-24.1Z"/><path d="M261.08,1.43h16.85v71.48h-16.24l-29-43.5v43.5h-16.85V1.43h16.24l29,43.5V1.43Z"/><path d="M83.52,36.78L63.68,2.42c-.31-.53-.75-.97-1.28-1.28,0,0,0,0,0,0-.53-.31-1.14-.47-1.75-.47H20.96c-.27,0-.52.14-.65.38l-7.96,13.8L.47,35.4C.16,35.93,0,36.54,0,37.15c0,0,0,0,0,0h0s0,0,0,0c0,.61.16,1.22.47,1.75l11.88,20.56,7.96,13.8c.13.23.38.38.65.38h39.68c.61,0,1.22-.16,1.75-.47,0,0,0,0,0,0,.53-.31.98-.75,1.28-1.28l11.87-20.57,7.97-13.8c.13-.23.13-.52,0-.75ZM54.41,57.34c-.18.3-.43.56-.73.74,0,0,0,0,0,0-.3.18-.65.27-1,.27h-22.44l11.22-19.44c.18-.3.43-.56.73-.74.3-.18.65-.27,1-.27h22.44l-11.22,19.44ZM33.48,25.11c.05-.08.1-.16.16-.23l2.57,4.45,4.62,7.99c-.27.24-.49.53-.68.84l-11.22,19.44-7.1-12.3,11.66-20.19ZM59.91,26.49l5.73,9.92h-22.45c-.36,0-.72.06-1.06.17l-7.19-12.44c.09-.01.19-.02.28-.02h23.31l1.38,2.38ZM35.22,22.61c-.62,0-1.22.16-1.75.47-.53.31-.98.75-1.28,1.28l-11.22,19.44-3.26-5.64c-.18-.31-.27-.65-.27-1s.09-.7.27-1l11.66-20.19h23.31c.35,0,.7.09,1,.27.31.18.56.43.74.74l3.26,5.64h-22.45ZM21.39,2.16h39.25c.09,0,.19,0,.28.02l-7.18,12.44c-.34-.11-.7-.17-1.06-.17H14.29l7.1-12.3ZM13.43,15.96h14.2l-11.22,19.44c-.18.31-.31.65-.39,1H1.65c.04-.09.08-.17.12-.25L13.43,15.96ZM1.65,37.9h14.37c.08.35.21.69.39,1l3.91,6.77s0,0,0,0l7.32,12.67h-14.2L1.77,38.16c-.05-.08-.09-.17-.12-.25ZM21.39,72.15l-7.1-12.3h38.38c.36,0,.72-.06,1.06-.17l1.91,3.3,5.28,9.14c-.09.01-.19.02-.28.02H21.39ZM62.38,71.14c-.05.08-.1.16-.16.23l-6.02-10.43-1.16-2.01c.27-.24.49-.53.67-.84l11.22-19.44,7.1,12.3-11.65,20.19ZM74.9,49.45l-19.19-33.24c-.18-.31-.41-.6-.68-.84l4.29-7.43,2.9-5.02c.06.07.11.15.16.23l19.62,33.99-7.1,12.3Z"/></svg>