<?xml version="1.0" encoding="UTF-8"?><svg id="uuid-aeeabc47-1627-4edc-9ad3-f40e666b290c" xmlns="http://www.w3.org/2000/svg" xmlns:xlink="http://www.w3.org/1999/xlink" viewBox="0 0 277.2 100.62"><defs><linearGradient id="uuid-5d67149e-59e3-4f59-a966-8bfff623f3f2" x1="21.14" y1="46.9" x2="40.15" y2="35.93" gradientUnits="userSpaceOnUse"><stop offset=".05" stop-color="#ffcc4e"/><stop offset=".2" stop-color="#fac84c"/><stop offset=".35" stop-color="#eebe47"/><stop offset=".5" stop-color="#d9ae3f"/><stop offset=".66" stop-color="#bc9634"/><stop offset=".82" stop-color="#977825"/><stop offset=".97" stop-color="#695414"/><stop offset="1" stop-color="#624e11"/></linearGradient><linearGradient id="uuid-da2ea27a-d8d2-407c-b9fb-19724446e330" x1="14.1" y1="15.21" x2="14.1" y2="37.15" gradientUnits="userSpaceOnUse"><stop offset=".05" stop-color="#00a759"/><stop offset=".24" stop-color="#00a256"/><stop offset=".43" stop-color="#00964e"/><stop offset=".62" stop-color="#008141"/><stop offset=".82" stop-color="#00642f"/><stop offset="1" stop-color="#00431a"/></linearGradient><linearGradient id="uuid-e9fd8ebb-ae30-4647-bc85-3000f0d5f30d" x1="54.23" y1="60.33" x2="73.24" y2="49.35" gradientUnits="userSpaceOnUse"><stop offset="0" stop-color="#5e0000"/><stop offset=".16" stop-color="#890e0a"/><stop offset=".32" stop-color="#ad1b13"/><stop offset=".47" stop-color="#c9241a"/><stop offset=".63" stop-color="#dd2b1f"/><stop offset=".79" stop-color="#e92f22"/><stop offset=".95" stop-color="#ee3124"/></linearGradient></defs><path d="M5.67,100.32l-2.11-3.8h-1.4v3.8H0v-10.56h4.29c2.05,0,3.58,1.42,3.58,3.41,0,1.34-.84,2.49-2.19,3.02l2.49,4.13h-2.49ZM2.16,91.81v2.75h2.07c.84,0,1.48-.57,1.48-1.37s-.63-1.37-1.48-1.37h-2.07Z" fill="#003469"/><path d="M15.53,98.27h5.22v2.05h-7.38v-10.56h7.23v2.05h-5.07v2.13h4.5v1.99h-4.5v2.34ZM19.33,86.54l-1.77,2.38h-1.61l1.24-2.38h2.14Z" fill="#003469"/><path d="M25.59,96.98h2.16c.12.89.72,1.6,1.9,1.6,1.12,0,1.63-.51,1.63-1.1,0-2.01-5.45-1.04-5.45-4.86,0-1.74,1.36-3.06,3.68-3.06s3.7,1.51,3.79,3.44h-2.16c-.06-.86-.65-1.51-1.63-1.51s-1.52.51-1.52,1.16c0,1.99,5.45,1,5.45,4.75,0,1.75-1.36,3.11-3.79,3.11s-3.97-1.52-4.06-3.53Z" fill="#003469"/><path d="M41.06,98.27h5.22v2.05h-7.38v-10.56h7.23v2.05h-5.07v2.13h4.5v1.99h-4.5v2.34Z" fill="#003469"/><path d="M58.48,100.32l-.77-2.17h-3.98l-.77,2.17h-2.19l3.94-10.56h2.11l3.92,10.56h-2.26ZM55.72,92.44l-1.28,3.71h2.57l-1.28-3.71Z" fill="#003469"/><path d="M65.04,96.26v-6.5h2.16v6.5c0,1.24.75,2.17,2.1,2.17s2.1-.94,2.1-2.17v-6.5h2.16v6.5c0,2.4-1.69,4.26-4.26,4.26s-4.26-1.86-4.26-4.26Z" fill="#003469"/><path d="M86.35,96.98h2.16c.12.89.72,1.6,1.9,1.6,1.12,0,1.63-.51,1.63-1.1,0-2.01-5.45-1.04-5.45-4.86,0-1.74,1.36-3.06,3.68-3.06s3.7,1.51,3.79,3.44h-2.16c-.06-.86-.65-1.51-1.63-1.51s-1.52.51-1.52,1.16c0,1.99,5.45,1,5.45,4.75,0,1.75-1.36,3.11-3.79,3.11s-3.97-1.52-4.06-3.53Z" fill="#003469"/><path d="M106,100.32l-.77-2.17h-3.98l-.77,2.17h-2.19l3.94-10.56h2.11l3.92,10.56h-2.26ZM103.24,92.44l-1.28,3.71h2.57l-1.28-3.71Z" fill="#003469"/><path d="M119.67,89.75h2.08v10.56h-1.98l-4.69-6.91v6.91h-2.08v-10.56h1.98l4.69,6.91v-6.91Z" fill="#003469"/><path d="M129.7,100.32v-8.48h-3.06v-2.08h8.29v2.08h-3.06v8.48h-2.16Z" fill="#003469"/><path d="M141.96,98.27h5.22v2.05h-7.38v-10.56h7.23v2.05h-5.07v2.13h4.5v1.99h-4.5v2.34ZM145.76,86.54l-1.77,2.38h-1.61l1.24-2.38h2.14Z" fill="#003469"/><path d="M166.81,89.75h2.08v10.56h-1.98l-4.69-6.91v6.91h-2.08v-10.56h1.98l4.69,6.91v-6.91Z" fill="#003469"/><path d="M174.77,96.26v-6.5h2.16v6.5c0,1.24.75,2.17,2.1,2.17s2.1-.94,2.1-2.17v-6.5h2.16v6.5c0,2.4-1.69,4.26-4.26,4.26s-4.26-1.86-4.26-4.26Z" fill="#003469"/><path d="M198.11,89.75h1.92v10.56h-2.08v-6.1l-2.84,6.1h-1.07l-2.81-6.04v6.04h-2.08v-10.56h2.05l3.46,7.45,3.46-7.45Z" fill="#003469"/><path d="M208.14,98.27h5.22v2.05h-7.38v-10.56h7.23v2.05h-5.07v2.13h4.5v1.99h-4.5v2.34ZM211.94,86.54l-1.77,2.38h-1.61l1.24-2.38h2.14Z" fill="#003469"/><path d="M224.55,100.32l-2.11-3.8h-1.4v3.8h-2.16v-10.56h4.29c2.05,0,3.58,1.42,3.58,3.41,0,1.34-.84,2.49-2.19,3.02l2.49,4.13h-2.49ZM221.03,91.81v2.75h2.07c.84,0,1.48-.57,1.48-1.37s-.63-1.37-1.48-1.37h-2.07Z" fill="#003469"/><path d="M232.24,100.32v-10.56h2.16v10.56h-2.16Z" fill="#003469"/><path d="M249.09,98.28l1,.98-1.3,1.36-1.03-1.01c-.83.57-1.81.91-2.85.91-2.82,0-5.19-2.43-5.19-5.48s2.37-5.48,5.19-5.48,5.19,2.43,5.19,5.48c0,1.22-.38,2.34-1.01,3.24ZM246.29,98.16l-1.3-1.27,1.3-1.36,1.31,1.28c.27-.51.42-1.12.42-1.78,0-2.01-1.43-3.47-3.11-3.47s-3.11,1.46-3.11,3.47,1.43,3.47,3.11,3.47c.48,0,.95-.12,1.37-.35Z" fill="#003469"/><path d="M255.44,96.26v-6.5h2.16v6.5c0,1.24.75,2.17,2.1,2.17s2.1-.94,2.1-2.17v-6.5h2.16v6.5c0,2.4-1.69,4.26-4.26,4.26s-4.26-1.86-4.26-4.26Z" fill="#003469"/><path d="M271.97,98.27h5.22v2.05h-7.38v-10.56h7.23v2.05h-5.07v2.13h4.5v1.99h-4.5v2.34Z" fill="#003469"/><path d="M137.78,72.91l-13.68-24.3h-7.76v24.3h-17.36V1.43h30.84c14.81,0,25.22,10.01,25.22,23.69,0,8.99-5.31,16.44-13.99,20.42l16.34,27.37h-19.61ZM116.03,16.65v17.36h12.25c5.31,0,9.19-3.68,9.19-8.68s-3.88-8.68-9.19-8.68h-12.25Z" fill="#003469"/><path d="M155.97,50.24l17.36-.82c.82,5.62,4.49,9.8,11.23,9.8,6.23,0,9.09-2.86,9.09-6.03,0-12.15-36.15-7.15-36.15-32.27,0-11.74,9.39-20.94,26.35-20.94,15.42,0,25.94,10.72,26.65,23.28l-17.26.82c-.61-5.41-4.19-8.99-9.6-8.99s-8.37,2.86-8.37,6.33c0,11.95,36.05,6.33,36.05,31.56,0,11.85-9.5,21.34-26.55,21.34s-27.98-10.93-28.8-24.1Z" fill="#003469"/><path d="M260.34,1.43h16.85v71.48h-16.24l-29-43.5v43.5h-16.85V1.43h16.24l29,43.5V1.43Z" fill="#003469"/><path d="M61.28,1.78c.41.24.76.58,1.01,1.01l19.84,34.36-7.97,13.8-19.84-34.36c-.25-.43-.6-.77-1.01-1.01l7.97-13.8Z" fill="#0061af"/><path d="M61.28,1.78c-.41-.24-.89-.37-1.38-.37H20.22l-7.96,13.8h39.68c.49,0,.97.13,1.38.37l7.97-13.8Z" fill="#0061af"/><path d="M58.23,23.36h-23.74c-.49,0-.97.13-1.38.37l7.97,13.8c.41-.24.89-.37,1.38-.37h23.74l-7.97-13.8Z" fill="#624e11"/><path d="M28.19,59.1h0l11.87-20.56c.25-.43.6-.77,1.01-1.01l-7.97-13.8c-.41.24-.76.58-1.01,1.01l-11.87,20.57,7.96,13.8Z" fill="url(#uuid-5d67149e-59e3-4f59-a966-8bfff623f3f2)"/><path d="M12.25,15.21L.38,35.78c-.25.43-.37.9-.37,1.38h15.93c0-.48.12-.95.37-1.38l11.87-20.56h-15.93Z" fill="url(#uuid-da2ea27a-d8d2-407c-b9fb-19724446e330)"/><path d="M28.19,59.1l-11.87-20.56c-.25-.43-.37-.9-.37-1.38H0c0,.48.12.95.37,1.38l11.88,20.56h15.93Z" fill="#00431a"/><path d="M74.16,50.95l-7.97-13.8-11.87,20.56c-.25.43-.6.77-1.01,1.01l7.97,13.8c.41-.24.76-.58,1.01-1.01l11.87-20.57Z" fill="url(#uuid-e9fd8ebb-ae30-4647-bc85-3000f0d5f30d)"/><path d="M61.28,72.53c-.41.24-.89.37-1.38.37H20.22s-7.96-13.8-7.96-13.8h39.68c.49,0,.97-.13,1.38-.37l7.97,13.8Z" fill="#5e0000"/></svg>